# xmcd
#
# Track frame offsets:
#	150
#	13280
#	26342
#	36625
#	45677
#	63095
#	74327
#	88967
#	100720
#	117417
#	127167
#
# Disc length: 1947 seconds
#
# Revision: 0
# Processed by: cddbd v1.5.2PL0 Copyright (c) Steve Scherf et al.
# Submitted via: dBpowerAMP V4.0
#
DISCID=9d07990b
DTITLE=Fishboy - Albatross: How We Failed To Save The Lone Star State With The Power Of Rock And Roll
DYEAR=2007
DGENRE=
TTITLE0=Minus Two
TTITLE1=Parachute (Using The Ghost Of Buddy Holly As A)
TTITLE2=Taqueria Girl
TTITLE3=Hard Earned Money
TTITLE4=Race Car
TTITLE5=Blackout-/ Flashback
TTITLE6=Half Time At The Proper Name Spelling Bee
TTITLE7=The Details Of Our Trip
TTITLE8=Thought Balloon
TTITLE9=Minus One
TTITLE10=Farewell Albatross
EXTD=
EXTT0=
EXTT1=
EXTT2=
EXTT3=
EXTT4=
EXTT5=
EXTT6=
EXTT7=
EXTT8=
EXTT9=
EXTT10=
PLAYORDER=
